<svg width="425" height="61" viewBox="0 0 425 61" fill="none" xmlns="http://www.w3.org/2000/svg">
<path d="M0 30.1679V30.0042C0 13.438 12.0321 0 28.0753 0C44.1185 0 56 13.2719 56 29.8381V30.0042C56 46.5703 43.9657 60 27.9279 60C11.8901 60 0 46.734 0 30.1679ZM41.2931 30.1679V30.0042C41.2931 21.6908 35.8742 14.4238 27.9279 14.4238C20.0543 14.4238 14.7795 21.5129 14.7795 29.8381V30.0042C14.7795 38.3187 20.2017 45.5822 28.0753 45.5822C36.0216 45.5822 41.2931 38.4931 41.2931 30.1679Z" fill="black"/>
<path d="M88.911 0C105.157 0 115.248 7.38373 115.37 19.2443H97.6665C97.6665 15.1162 94.1062 12.558 88.7892 12.558C83.4721 12.558 80.9331 14.5347 80.9331 17.5C80.9331 20.4652 83.1676 21.3954 87.6414 22.2676L100.084 24.7093C112.165 27.1511 117 31.8023 117 40.4649C117 52.0928 105.822 60 89.2108 60C72.5991 60 61.7823 52.3255 61 40.6397H79.7853C80.3287 44.8838 83.8329 47.3836 89.5153 47.3836C95.1931 47.3836 97.8493 45.6396 97.8493 42.558C97.8493 39.4768 96.0363 38.9533 91.3844 38.0232L80.1507 35.7557C68.4907 33.3719 62.3867 27.4998 62.3867 18.7208C62.7521 7.32576 72.8989 0.057952 89.2717 0.057952L88.911 0Z" fill="black"/>
<path d="M163.5 36.4274C163 41.5 158.226 46 151 46C143.774 46 136.916 37.8211 136.916 29.4976C136.916 21.1741 136.916 29.3316 136.916 29.3316C136.916 21.0175 144.03 14 151 14C157.97 14 163 18.5 163.5 23.4813L178 23.4813C177.723 9 165.231 0 151 0C134.803 0 122 12.9455 122 29.4976V29.6613C122 46.2265 134.806 60 151 60C164.853 60 178 51 178 36.4274H163.5Z" fill="black"/>
<path d="M204.315 0H217.685L239 60H224.125L220.474 49.3602H201.163L197.589 60H183L204.315 0ZM216.471 36.5118L210.892 19.5733L205.241 36.5118H216.471Z" fill="black"/>
<path d="M268.768 60H258.184L246.16 24H256.744L263.512 44.232L270.208 24H280.72L287.416 44.232L294.184 24H304.768L292.744 60H282.16L275.464 39.768L268.768 60ZM337.815 24H348.615V60H337.779L337.275 56.76C336.387 58.008 335.259 59.016 333.891 59.784C332.547 60.552 330.975 60.936 329.175 60.936C326.487 60.936 323.967 60.432 321.615 59.424C319.287 58.416 317.235 57.024 315.459 55.248C313.683 53.448 312.291 51.384 311.283 49.056C310.299 46.704 309.807 44.184 309.807 41.496C309.807 38.928 310.275 36.528 311.211 34.296C312.147 32.064 313.455 30.108 315.135 28.428C316.839 26.724 318.795 25.392 321.003 24.432C323.235 23.472 325.623 22.992 328.167 22.992C330.231 22.992 332.103 23.424 333.783 24.288C335.487 25.128 336.999 26.184 338.319 27.456L337.815 24ZM328.887 50.568C330.375 50.568 331.731 50.184 332.955 49.416C334.179 48.648 335.151 47.616 335.871 46.32C336.591 45.024 336.951 43.584 336.951 42C336.951 40.416 336.591 38.976 335.871 37.68C335.151 36.384 334.179 35.352 332.955 34.584C331.731 33.816 330.375 33.432 328.887 33.432C327.399 33.432 326.043 33.816 324.819 34.584C323.619 35.352 322.659 36.384 321.939 37.68C321.243 38.976 320.895 40.416 320.895 42C320.895 43.584 321.255 45.024 321.975 46.32C322.695 47.616 323.655 48.648 324.855 49.416C326.079 50.184 327.423 50.568 328.887 50.568ZM359.478 60L359.442 24H370.242L370.278 26.268C371.478 25.236 372.846 24.432 374.382 23.856C375.918 23.28 377.538 22.992 379.242 22.992C380.538 22.992 381.858 23.184 383.202 23.568L378.954 34.512C378.114 34.128 377.25 33.936 376.362 33.936C375.234 33.936 374.202 34.212 373.266 34.764C372.354 35.292 371.622 36.024 371.07 36.96C370.542 37.872 370.278 38.892 370.278 40.02V60H359.478ZM404.827 60.936C401.515 60.936 398.491 60.084 395.755 58.38C393.043 56.676 390.871 54.384 389.239 51.504C387.631 48.624 386.827 45.444 386.827 41.964C386.827 39.348 387.295 36.9 388.231 34.62C389.167 32.316 390.451 30.3 392.083 28.572C393.739 26.82 395.659 25.452 397.843 24.468C400.027 23.484 402.355 22.992 404.827 22.992C407.707 22.992 410.335 23.628 412.711 24.9C415.111 26.148 417.127 27.852 418.759 30.012C420.415 32.148 421.591 34.56 422.287 37.248C422.983 39.936 423.055 42.708 422.503 45.564H398.491C398.827 46.404 399.271 47.172 399.823 47.868C400.399 48.54 401.095 49.08 401.911 49.488C402.751 49.896 403.723 50.112 404.827 50.136C405.883 50.16 406.855 49.932 407.743 49.452C408.655 48.972 409.447 48.324 410.119 47.508L421.135 50.064C419.671 53.256 417.487 55.872 414.583 57.912C411.679 59.928 408.427 60.936 404.827 60.936ZM398.095 37.644H411.595C411.259 36.612 410.755 35.7 410.083 34.908C409.411 34.116 408.619 33.492 407.707 33.036C406.819 32.58 405.859 32.352 404.827 32.352C403.819 32.352 402.859 32.58 401.947 33.036C401.059 33.492 400.279 34.116 399.607 34.908C398.959 35.7 398.455 36.612 398.095 37.644Z" fill="black"/>
</svg>
