<svg width="535" height="90" viewBox="0 0 535 90" fill="none" xmlns="http://www.w3.org/2000/svg">
<path d="M45.0001 0C69.9 0 90 20.1 90 45C90 69.8999 69.9 90 45.0001 90C20.1 90 0 69.8999 0 45C0 20.1 20.1 0 45.0001 0ZM45.0001 12C26.7 12 12 26.7 12 45C12 63.3001 26.7 77.9999 45.0001 77.9999C63.3 77.9999 78 63.3001 78 45C78 26.7 63.3 12 45.0001 12Z" fill="#017AFF"/>
<path d="M26.4 34.8504V34.8013C26.4 29.8314 30.0096 25.8 34.8226 25.8C39.6356 25.8 43.2 29.7816 43.2 34.7515V34.8013C43.2 39.7711 39.5897 43.8001 34.7784 43.8001C29.967 43.8001 26.4 39.8203 26.4 34.8504Z" fill="#017AFF"/>
<path d="M54.5733 25.8C59.4472 25.8 62.4744 28.0152 62.5109 31.5734H57.2C57.2 30.3349 56.1319 29.5674 54.5368 29.5674C52.9417 29.5674 52.1799 30.1605 52.1799 31.05C52.1799 31.9396 52.8503 32.2187 54.1924 32.4803L57.9252 33.2128C61.5497 33.9454 63 35.3408 63 37.9395C63 41.4279 59.6468 43.8001 54.6632 43.8001C49.6797 43.8001 46.4347 41.4977 46.2 37.992H51.8356C51.9986 39.2652 53.0499 40.0151 54.7546 40.0151C56.4579 40.0151 57.2548 39.4919 57.2548 38.5674C57.2548 37.6431 56.7109 37.486 55.3153 37.207L51.9452 36.5268C48.4472 35.8116 46.616 34.05 46.616 31.4163C46.7256 27.9978 49.7697 25.8174 54.6815 25.8174L54.5733 25.8Z" fill="#017AFF"/>
<path d="M38.85 57.1282C38.7 58.65 37.2677 60 35.1 60C32.9323 60 30.8749 57.5463 30.8749 55.0492C30.8749 52.5522 30.8749 54.9994 30.8749 54.9994C30.8749 52.5052 33.0089 50.4 35.1 50.4C37.1911 50.4 38.7 51.75 38.85 53.2443L43.2 53.2443C43.1168 48.9 39.3692 46.2 35.1 46.2C30.2409 46.2 26.4 50.0836 26.4 55.0492V55.0983C26.4 60.0679 30.2417 64.2 35.1 64.2C39.2558 64.2 43.2 61.5 43.2 57.1282H38.85Z" fill="#017AFF"/>
<path d="M52.5946 46.2H56.6054L63 64.2H58.5374H55.8H52.5H50.5768H46.2L52.5946 46.2Z" fill="#017AFF"/>
<path d="M110 45.1679V45.0042C110 28.438 122.032 15 138.075 15C154.118 15 166 28.2719 166 44.8381V45.0042C166 61.5703 153.966 75 137.928 75C121.89 75 110 61.734 110 45.1679ZM151.293 45.1679V45.0042C151.293 36.6908 145.874 29.4238 137.928 29.4238C130.054 29.4238 124.78 36.5129 124.78 44.8381V45.0042C124.78 53.3187 130.202 60.5822 138.075 60.5822C146.022 60.5822 151.293 53.4931 151.293 45.1679Z" fill="black"/>
<path d="M198.911 15C215.157 15 225.248 22.3837 225.37 34.2443H207.667C207.667 30.1162 204.106 27.558 198.789 27.558C193.472 27.558 190.933 29.5347 190.933 32.5C190.933 35.4652 193.168 36.3954 197.641 37.2676L210.084 39.7093C222.165 42.1511 227 46.8023 227 55.4649C227 67.0928 215.822 75 199.211 75C182.599 75 171.782 67.3255 171 55.6397H189.785C190.329 59.8838 193.833 62.3836 199.515 62.3836C205.193 62.3836 207.849 60.6396 207.849 57.558C207.849 54.4768 206.036 53.9533 201.384 53.0232L190.151 50.7557C178.491 48.3719 172.387 42.4998 172.387 33.7208C172.752 22.3258 182.899 15.058 199.272 15.058L198.911 15Z" fill="black"/>
<path d="M273.5 51.4274C273 56.5 268.226 61 261 61C253.774 61 246.916 52.8211 246.916 44.4976C246.916 36.1741 246.916 44.3316 246.916 44.3316C246.916 36.0175 254.03 29 261 29C267.97 29 273 33.5 273.5 38.4813L288 38.4813C287.723 24 275.231 15 261 15C244.803 15 232 27.9455 232 44.4976V44.6613C232 61.2265 244.806 75 261 75C274.853 75 288 66 288 51.4274H273.5Z" fill="black"/>
<path d="M314.315 15H327.685L349 75H334.125L330.474 64.3602H311.163L307.589 75H293L314.315 15ZM326.471 51.5118L320.892 34.5733L315.241 51.5118H326.471Z" fill="black"/>
<path d="M378.768 75H368.184L356.16 39H366.744L373.512 59.232L380.208 39H390.72L397.416 59.232L404.184 39H414.768L402.744 75H392.16L385.464 54.768L378.768 75ZM447.815 39H458.615V75H447.779L447.275 71.76C446.387 73.008 445.259 74.016 443.891 74.784C442.547 75.552 440.975 75.936 439.175 75.936C436.487 75.936 433.967 75.432 431.615 74.424C429.287 73.416 427.235 72.024 425.459 70.248C423.683 68.448 422.291 66.384 421.283 64.056C420.299 61.704 419.807 59.184 419.807 56.496C419.807 53.928 420.275 51.528 421.211 49.296C422.147 47.064 423.455 45.108 425.135 43.428C426.839 41.724 428.795 40.392 431.003 39.432C433.235 38.472 435.623 37.992 438.167 37.992C440.231 37.992 442.103 38.424 443.783 39.288C445.487 40.128 446.999 41.184 448.319 42.456L447.815 39ZM438.887 65.568C440.375 65.568 441.731 65.184 442.955 64.416C444.179 63.648 445.151 62.616 445.871 61.32C446.591 60.024 446.951 58.584 446.951 57C446.951 55.416 446.591 53.976 445.871 52.68C445.151 51.384 444.179 50.352 442.955 49.584C441.731 48.816 440.375 48.432 438.887 48.432C437.399 48.432 436.043 48.816 434.819 49.584C433.619 50.352 432.659 51.384 431.939 52.68C431.243 53.976 430.895 55.416 430.895 57C430.895 58.584 431.255 60.024 431.975 61.32C432.695 62.616 433.655 63.648 434.855 64.416C436.079 65.184 437.423 65.568 438.887 65.568ZM469.478 75L469.442 39H480.242L480.278 41.268C481.478 40.236 482.846 39.432 484.382 38.856C485.918 38.28 487.538 37.992 489.242 37.992C490.538 37.992 491.858 38.184 493.202 38.568L488.954 49.512C488.114 49.128 487.25 48.936 486.362 48.936C485.234 48.936 484.202 49.212 483.266 49.764C482.354 50.292 481.622 51.024 481.07 51.96C480.542 52.872 480.278 53.892 480.278 55.02V75H469.478ZM514.827 75.936C511.515 75.936 508.491 75.084 505.755 73.38C503.043 71.676 500.871 69.384 499.239 66.504C497.631 63.624 496.827 60.444 496.827 56.964C496.827 54.348 497.295 51.9 498.231 49.62C499.167 47.316 500.451 45.3 502.083 43.572C503.739 41.82 505.659 40.452 507.843 39.468C510.027 38.484 512.355 37.992 514.827 37.992C517.707 37.992 520.335 38.628 522.711 39.9C525.111 41.148 527.127 42.852 528.759 45.012C530.415 47.148 531.591 49.56 532.287 52.248C532.983 54.936 533.055 57.708 532.503 60.564H508.491C508.827 61.404 509.271 62.172 509.823 62.868C510.399 63.54 511.095 64.08 511.911 64.488C512.751 64.896 513.723 65.112 514.827 65.136C515.883 65.16 516.855 64.932 517.743 64.452C518.655 63.972 519.447 63.324 520.119 62.508L531.135 65.064C529.671 68.256 527.487 70.872 524.583 72.912C521.679 74.928 518.427 75.936 514.827 75.936ZM508.095 52.644H521.595C521.259 51.612 520.755 50.7 520.083 49.908C519.411 49.116 518.619 48.492 517.707 48.036C516.819 47.58 515.859 47.352 514.827 47.352C513.819 47.352 512.859 47.58 511.947 48.036C511.059 48.492 510.279 49.116 509.607 49.908C508.959 50.7 508.455 51.612 508.095 52.644Z" fill="black"/>
</svg>
