<svg width="117" height="125" viewBox="0 0 117 125" fill="none" xmlns="http://www.w3.org/2000/svg">
<path d="M0 30.1679V30.0042C0 13.438 12.0321 0 28.0753 0C44.1185 0 56 13.2719 56 29.8381V30.0042C56 46.5703 43.9657 60 27.9279 60C11.8901 60 0 46.734 0 30.1679Z" fill="#017AFF"/>
<path d="M88.911 0C105.157 0 115.248 7.38373 115.37 19.2443H97.6665C97.6665 15.1162 94.1062 12.558 88.7892 12.558C83.4721 12.558 80.9331 14.5347 80.9331 17.5C80.9331 20.4652 83.1676 21.3954 87.6414 22.2676L100.084 24.7093C112.165 27.1511 117 31.8023 117 40.4649C117 52.0928 105.822 60 89.2108 60C72.5991 60 61.7823 52.3255 61 40.6397H79.7853C80.3287 44.8838 83.8329 47.3836 89.5153 47.3836C95.1931 47.3836 97.8493 45.6396 97.8493 42.558C97.8493 39.4768 96.0363 38.9533 91.3844 38.0232L80.1507 35.7557C68.4907 33.3719 62.3867 27.4998 62.3867 18.7208C62.7521 7.32576 72.8989 0.057952 89.2717 0.057952L88.911 0Z" fill="#017AFF"/>
<path d="M41.5 101.427C41 106.5 36.2255 111 29 111C21.7745 111 14.9164 102.821 14.9164 94.4976C14.9164 86.1741 14.9164 94.3316 14.9164 94.3316C14.9164 86.0175 22.0296 79 29 79C35.9704 79 41 83.5 41.5 88.4813L56 88.4813C55.7228 74 43.2307 65 29 65C12.8031 65 0 77.9455 0 94.4976V94.6613C0 111.227 12.8055 125 29 125C42.8525 125 56 116 56 101.427H41.5Z" fill="#017AFF"/>
<path d="M82.3153 65H95.6847L117 125H102.125H94H83H75.5894H61L82.3153 65Z" fill="#017AFF"/>
</svg>
