<svg width="160" height="160" viewBox="0 0 160 160" fill="none" xmlns="http://www.w3.org/2000/svg">
<path d="M80.0003 0C124.267 0 160 35.7334 160 80C160 124.267 124.267 160 80.0003 160C35.7334 160 0 124.267 0 80C0 35.7334 35.7334 0 80.0003 0ZM80.0003 21.3334C47.4667 21.3334 21.3334 47.4667 21.3334 80C21.3334 112.534 47.4667 138.667 80.0003 138.667C112.533 138.667 138.667 112.534 138.667 80C138.667 47.4667 112.533 21.3334 80.0003 21.3334Z" fill="#017AFF"/>
<path d="M46.9333 61.9562V61.8689C46.9333 53.0336 53.3505 45.8667 61.9068 45.8667C70.4632 45.8667 76.8 52.9451 76.8 61.7803V61.8689C76.8 70.7042 70.3817 77.8667 61.8282 77.8667C53.2747 77.8667 46.9333 70.7915 46.9333 61.9562Z" fill="#017AFF"/>
<path d="M97.0192 45.8667C105.684 45.8667 111.066 49.8047 111.131 56.1303H101.689C101.689 53.9286 99.79 52.5643 96.9543 52.5643C94.1185 52.5643 92.7643 53.6185 92.7643 55.2C92.7643 56.7815 93.9561 57.2776 96.3421 57.7427L102.978 59.045C109.422 60.3473 112 62.8279 112 67.448C112 73.6495 106.039 77.8667 97.1791 77.8667C88.3196 77.8667 82.5506 73.7737 82.1334 67.5412H92.1522C92.442 69.8047 94.3109 71.1379 97.3415 71.1379C100.37 71.1379 101.786 70.2078 101.786 68.5643C101.786 66.921 100.819 66.6418 98.3384 66.1457L92.3471 64.9364C86.1284 63.6651 82.8729 60.5333 82.8729 55.8512C83.0678 49.7738 88.4795 45.8976 97.2116 45.8976L97.0192 45.8667Z" fill="#017AFF"/>
<path d="M69.0667 101.561C68.8 104.267 66.2536 106.667 62.4 106.667C58.5464 106.667 54.8887 102.305 54.8887 97.8654C54.8887 93.4262 54.8887 97.7768 54.8887 97.7768C54.8887 93.3427 58.6825 89.6 62.4 89.6C66.1175 89.6 68.8 92 69.0667 94.6566L76.8 94.6566C76.6522 86.9333 69.9897 82.1333 62.4 82.1333C53.7616 82.1333 46.9333 89.0376 46.9333 97.8654V97.9527C46.9333 106.787 53.763 114.133 62.4 114.133C69.788 114.133 76.8 109.333 76.8 101.561H69.0667Z" fill="#017AFF"/>
<path d="M93.5015 82.1333H100.632L112 114.133H104.067H99.2H93.3334H89.9144H82.1334L93.5015 82.1333Z" fill="#017AFF"/>
</svg>
